<?xml version="1.0" encoding="UTF-8" standalone="no"?>
<!DOCTYPE svg PUBLIC "-//W3C//DTD SVG 1.1//EN" "http://www.w3.org/Graphics/SVG/1.1/DTD/svg11.dtd"><svg width="100%"
    height="100%" viewBox="0 0 2109 334" version="1.1" xmlns="http://www.w3.org/2000/svg"
    xmlns:xlink="http://www.w3.org/1999/xlink" xml:space="preserve" xmlns:serif="http://www.serif.com/"
    style="fill-rule:evenodd;clip-rule:evenodd;stroke-linejoin:round;stroke-miterlimit:2;">
    <style>
        path {
            fill: black;
        }

        @media (prefers-color-scheme: dark) {
            path {
                fill: white;
            }
        }
    </style>
    <path
        d="M1816.67,20.833l-20.834,0l0,-20.833l20.834,0l-0,20.833Zm83.333,0l20.833,0l0,-20.833l20.834,0l-0,41.667l-41.667,-0l0,-20.834Zm-41.667,0l0,-20.833l41.667,0l0,20.833l-41.667,0Zm20.834,41.667l20.833,0l-0,41.667l-20.833,-0l-0,-41.667Zm-62.5,-41.667l41.666,0l0,20.834l20.834,-0l-0,20.833l-20.834,0l0,20.833l-20.833,0l0,-20.833l-20.833,0l-0,-41.667Zm187.5,0l-0,20.834l-41.667,-0l0,-20.834l41.667,0Zm-0,0l-0,-20.833l20.833,0l0,20.833l-20.833,0Zm41.666,291.667l0,20.833l-41.666,0l-0,-20.833l41.666,-0Zm0,-0l0,-20.833l20.834,-0l-0,20.833l-20.834,-0Zm-250,-0l0,20.833l-41.666,0l-0,-20.833l41.666,-0Zm0,-41.667l-20.833,0l0,-20.833l20.833,-0l0,20.833Zm20.834,41.667l62.5,-0l-0,20.833l-62.5,0l-0,-20.833Zm-20.834,-0l0,-41.667l20.834,0l-0,41.667l-20.834,-0Zm-104.166,-250l-20.834,-0l0,-20.833l20.834,-0l-0,20.833Zm20.833,62.5l0,-41.667l-20.833,0l-0,-20.833l20.833,-0l0,-20.833l41.667,-0l-0,20.833l-20.834,-0l0,41.667l20.834,-0l-0,20.833l-41.667,-0Zm41.667,-83.333l-0,-20.834l20.833,0l0,20.834l-20.833,-0Zm20.833,-0l20.833,-0l0,20.833l-20.833,-0l0,-20.833Zm0,20.833l0,20.833l41.667,0l-0,20.834l-20.834,-0l0,20.833l-20.833,-0l0,-20.833l-20.833,-0l-0,-41.667l20.833,-0Zm-83.333,83.333l-0,-20.833l20.833,-0l0,20.833l-20.833,0Zm20.833,166.667l20.833,-0l0,20.833l-20.833,0l0,-20.833Zm-83.333,-0l20.833,-0l0,20.833l-20.833,0l-0,-20.833Zm-104.167,-166.667l0,-20.833l41.667,-0l-0,-20.833l20.833,-0l0,-20.834l-20.833,0l-0,20.834l-20.834,-0l0,-41.667l20.834,-0l-0,-20.833l-20.834,-0l0,20.833l-20.833,-0l0,-41.667l20.833,0l0,-20.833l41.667,-0l0,62.5l41.667,-0l-0,20.833l-20.834,0l0,20.834l20.834,-0l-0,20.833l-20.834,-0l0,20.833l20.834,0l-0,20.834l-41.667,-0l0,62.5l62.5,-0l0,-41.667l-20.833,-0l-0,-20.833l20.833,-0l0,-20.834l41.667,0l-0,20.834l-20.834,-0l0,41.666l62.5,0l0,20.834l-20.833,-0l0,20.833l-20.833,-0l-0,-20.833l-20.834,-0l0,20.833l-41.666,-0l-0,62.5l-20.834,-0l0,-62.5l-20.833,-0l0,41.667l-20.833,-0l-0,-41.667l-20.834,-0l0,-20.833l20.834,-0l-0,-20.834l-20.834,0l0,-41.666l20.834,-0l-0,-20.834l-41.667,0Zm104.167,-62.5l41.666,0l0,41.667l-20.833,-0l0,-20.833l-20.833,-0l-0,-20.834Zm20.833,41.667l0,20.833l-20.833,0l-0,-20.833l20.833,-0Zm62.5,125l41.667,-0l-0,41.667l-20.834,-0l0,-20.834l-20.833,0l0,-20.833Zm0,20.833l0,41.667l-20.833,-0l-0,20.833l-20.834,0l0,-41.666l20.834,-0l-0,-20.834l20.833,0Zm-41.667,20.834l-20.833,-0l0,-20.834l20.833,0l0,20.834Zm0,-20.834l0,-20.833l20.834,-0l-0,20.833l-20.834,0Zm-41.666,-83.333l-0,20.833l-20.834,0l0,-20.833l20.834,-0Zm-104.167,83.333l20.833,0l0,20.834l-20.833,-0l0,-20.834Zm-1504.17,41.667l0,-20.833l-20.833,-0l0,-270.834l20.833,0l0,-20.833l770.834,-0l-0,20.833l20.833,0l0,-20.833l316.667,-0l-0,20.833l20.833,0l0,-20.833l104.167,-0l-0,20.833l41.666,0l0,20.834l20.834,-0l-0,-41.667l83.333,-0l0,20.833l-41.667,0l0,20.834l-20.833,-0l0,20.833l20.833,-0l0,-20.833l20.834,-0l-0,41.666l-20.834,0l0,20.834l20.834,-0l-0,-20.834l20.833,0l0,-62.5l41.667,0l-0,-20.833l62.5,-0l-0,83.333l-41.667,0l0,-20.833l20.833,-0l0,-41.667l-20.833,0l0,41.667l-41.667,-0l0,41.667l-20.833,-0l0,62.5l-20.833,-0l-0,-20.834l-20.834,0l0,20.834l20.834,-0l-0,20.833l-20.834,-0l0,20.833l-20.833,0l0,-41.666l-20.833,-0l-0,62.5l41.666,-0l0,104.166l-41.666,0l-0,-41.666l-20.834,-0l0,41.666l-20.833,0l0,-62.5l20.833,0l0,-20.833l-20.833,-0l0,20.833l-20.833,0l-0,62.5l-62.5,0l-0,-20.833l-20.834,-0l0,20.833l-587.5,0l0,-20.833l-20.833,-0l0,20.833l-520.833,0l-0,-20.833l-20.834,-0Zm1483.33,-229.167l20.833,0l0,20.834l-20.833,-0l-0,-20.834Zm-0,20.834l-0,41.666l-20.834,0l0,-20.833l-20.833,-0l0,-20.833l41.667,-0Zm-0,41.666l20.833,0l0,20.834l-20.833,-0l-0,-20.834Zm-0,20.834l-0,20.833l-20.834,-0l0,-20.833l20.834,-0Zm-20.834,20.833l0,20.833l41.667,0l0,62.5l-20.833,0l-0,-20.833l-20.834,-0l0,-20.833l-20.833,-0l0,-20.834l-20.833,0l-0,-62.5l41.666,0l0,20.834l-20.833,-0l0,20.833l20.833,-0Zm20.834,83.333l-0,41.667l-20.834,-0l0,20.833l-41.666,0l-0,-20.833l-41.667,-0l0,-20.833l62.5,-0l0,-20.834l41.667,0Zm-104.167,20.834l-20.833,-0l-0,-62.5l-20.834,-0l0,-20.834l41.667,0l0,20.834l20.833,-0l0,20.833l-20.833,-0l0,41.667Zm20.833,-187.5l20.834,-0l-0,20.833l-20.834,-0l0,-20.833Zm-20.833,62.5l20.833,-0l0,41.666l-20.833,0l0,-41.666Zm20.833,41.666l20.834,0l-0,20.834l-20.834,-0l0,-20.834Zm41.667,20.834l0,41.666l-41.667,0l0,-20.833l20.834,-0l-0,-20.833l20.833,-0Zm-1441.67,83.333l0,20.833l-20.833,0l0,-20.833l20.833,-0Zm1170.83,-83.333l41.666,-0l0,-20.834l-41.666,0l-0,20.834Zm-20.834,-0l0,20.833l20.834,-0l-0,-20.833l-20.834,-0Zm0,-0l0,-20.834l-20.833,0l0,20.834l20.833,-0Zm-83.333,-83.334l-20.833,0l-0,20.834l20.833,-0l0,-20.834Zm62.5,-104.166l-20.833,-0l-0,20.833l20.833,-0l0,-20.833Zm-982.947,55.018c-39.23,0 -71.08,31.85 -71.08,71.08c0,39.23 31.85,71.08 71.08,71.08c39.23,-0 71.08,-31.85 71.08,-71.08c-0,-39.23 -31.85,-71.08 -71.08,-71.08Zm-0,9.214c34.144,0 61.866,27.721 61.866,61.866c-0,34.145 -27.722,61.866 -61.866,61.866c-34.145,-0 -61.866,-27.721 -61.866,-61.866c0,-34.145 27.721,-61.866 61.866,-61.866Zm3.36,43.685l-0,-8.428c2.271,-1.198 3.814,-3.57 3.814,-6.289c-0,-3.918 -3.205,-7.116 -7.174,-7.116c-3.97,-0 -7.174,3.198 -7.174,7.116c-0,2.635 1.449,4.945 3.606,6.175l0,8.542l-9.228,-0c-7.772,-0 -14.082,6.31 -14.082,14.081l0,20.529c0,7.772 6.31,14.082 14.082,14.082l25.592,-0c7.772,-0 14.081,-6.31 14.081,-14.082l0,-20.529c0,-7.771 -6.309,-14.081 -14.081,-14.081l-9.436,-0Zm15.883,14.081l-0,20.529c-0,3.559 -2.889,6.447 -6.447,6.447l-25.592,0c-3.558,0 -6.447,-2.888 -6.447,-6.447l-0,-20.529c-0,-3.558 2.889,-6.447 6.447,-6.447l25.592,0c3.558,0 6.447,2.889 6.447,6.447Zm-28.151,3.837c-0.717,-0.041 -1.448,0.211 -1.995,0.758l-3.46,3.454c-1.02,1.018 -1.021,2.672 -0.004,3.692c1.018,1.019 2.672,1.021 3.692,0.003l1.676,-1.674l1.678,1.681c1.018,1.019 2.672,1.021 3.692,0.003c1.019,-1.018 1.021,-2.672 0.003,-3.691l-3.454,-3.46c-0.505,-0.506 -1.165,-0.761 -1.828,-0.766Zm17.655,0c-0.717,-0.041 -1.448,0.211 -1.996,0.758l-3.46,3.454c-1.019,1.018 -1.021,2.672 -0.003,3.692c1.018,1.019 2.672,1.021 3.691,0.003l1.677,-1.674l1.678,1.681c1.018,1.019 2.672,1.021 3.691,0.003c1.02,-1.018 1.021,-2.672 0.003,-3.691l-3.454,-3.46c-0.504,-0.506 -1.165,-0.761 -1.827,-0.766Zm-8.747,-34.223c0.898,-0 1.646,0.701 1.646,1.588c-0,0.887 -0.748,1.588 -1.646,1.588c-0.899,0 -1.646,-0.701 -1.646,-1.588c0,-0.887 0.747,-1.588 1.646,-1.588Zm1024.61,137.554l-20.834,0l0,20.834l20.834,-0l-0,-20.834Zm-827.933,-117.721l-0,4.598c-3.662,-3.798 -7.799,-5.697 -12.411,-5.697c-5.344,0 -9.792,1.981 -13.346,5.941c-3.554,3.961 -5.33,8.911 -5.33,14.852c-0,6.049 1.776,11.095 5.33,15.137c3.581,3.96 8.111,5.94 13.591,5.94c4.34,0 8.395,-1.763 12.166,-5.289l-0,4.15l9.196,0l-0,-39.632l-9.196,-0Zm-21.729,19.694c0,-3.554 1.045,-6.538 3.134,-8.952c2.115,-2.387 4.747,-3.581 7.893,-3.581c3.337,0 6.05,1.18 8.138,3.54c2.089,2.415 3.134,5.48 3.134,9.196c-0,3.717 -1.045,6.782 -3.134,9.196c-2.088,2.333 -4.828,3.5 -8.219,3.5c-3.174,-0 -5.805,-1.207 -7.894,-3.622c-2.034,-2.387 -3.052,-5.479 -3.052,-9.277Zm65.511,-12.94c-2.468,-5.235 -6.239,-7.853 -11.311,-7.853c-3.446,0 -6.375,1.126 -8.789,3.378c-2.36,2.251 -3.541,5.099 -3.541,8.544c0,2.605 0.692,4.734 2.076,6.389c1.085,1.302 2.956,2.604 5.615,3.906c0.949,0.461 1.885,0.909 2.808,1.343c0.922,0.434 1.844,0.881 2.766,1.343c2.388,1.41 3.581,2.929 3.581,4.557c0,2.821 -1.546,4.232 -4.638,4.232c-1.547,-0 -2.876,-0.516 -3.988,-1.547c-0.57,-0.515 -1.397,-1.722 -2.482,-3.621l-7.813,3.621c2.767,6.484 7.474,9.725 14.12,9.725c3.879,0 7.188,-1.22 9.928,-3.662c2.821,-2.577 4.232,-5.778 4.232,-9.603c-0,-2.984 -0.841,-5.357 -2.523,-7.12c-1.682,-1.764 -4.95,-3.69 -9.806,-5.778c-3.527,-1.492 -5.29,-2.998 -5.29,-4.517c0,-0.868 0.298,-1.58 0.895,-2.136c0.597,-0.556 1.316,-0.834 2.157,-0.834c1.763,-0 3.242,1.22 4.435,3.662l7.568,-4.029Zm8.912,12.777c-0,6.077 2.007,11.122 6.022,15.137c4.014,4.069 8.992,6.103 14.933,6.103c5.995,0 11.054,-1.993 15.177,-5.981c4.097,-4.015 6.145,-8.993 6.145,-14.933c-0,-5.887 -2.035,-10.851 -6.104,-14.893c-4.123,-4.042 -9.142,-6.063 -15.055,-6.063c-5.887,0 -10.878,2.008 -14.974,6.022c-4.096,4.015 -6.144,8.884 -6.144,14.608Zm9.358,0.163c0,-3.689 1.085,-6.7 3.256,-9.033c2.17,-2.333 5.004,-3.5 8.504,-3.5c3.553,0 6.415,1.167 8.585,3.5c2.143,2.306 3.215,5.384 3.215,9.236c-0,3.852 -1.072,6.931 -3.215,9.237c-2.143,2.306 -5.005,3.459 -8.585,3.459c-3.554,-0 -6.416,-1.167 -8.586,-3.5c-2.116,-2.305 -3.174,-5.439 -3.174,-9.399Zm65.633,-12.94c-2.468,-5.235 -6.239,-7.853 -11.311,-7.853c-3.446,0 -6.375,1.126 -8.789,3.378c-2.361,2.251 -3.541,5.099 -3.541,8.544c0,2.605 0.692,4.734 2.076,6.389c1.085,1.302 2.956,2.604 5.615,3.906c0.949,0.461 1.885,0.909 2.808,1.343c0.922,0.434 1.844,0.881 2.766,1.343c2.388,1.41 3.581,2.929 3.581,4.557c0,2.821 -1.546,4.232 -4.638,4.232c-1.547,-0 -2.876,-0.516 -3.988,-1.547c-0.57,-0.515 -1.397,-1.722 -2.482,-3.621l-7.813,3.621c2.767,6.484 7.474,9.725 14.12,9.725c3.879,0 7.188,-1.22 9.928,-3.662c2.821,-2.577 4.232,-5.778 4.232,-9.603c-0,-2.984 -0.841,-5.357 -2.523,-7.12c-1.682,-1.764 -4.951,-3.69 -9.806,-5.778c-3.527,-1.492 -5.29,-2.998 -5.29,-4.517c0,-0.868 0.298,-1.58 0.895,-2.136c0.597,-0.556 1.316,-0.834 2.157,-0.834c1.763,-0 3.241,1.22 4.435,3.662l7.568,-4.029Zm5.005,8.749l0,7.975l18.148,0l0,-7.975l-18.148,-0Zm33.366,-6.958l7.121,-0l-0,-8.545l-7.121,-0l0,-14.526l-9.155,-0l-0,14.526l-3.906,-0l-0,8.545l3.906,-0l-0,31.087l9.155,0l0,-31.087Zm13.347,-8.545l-0,39.632l9.155,0l-0,-20.548c-0,-7.542 2.495,-11.312 7.487,-11.312c1.655,-0 3.35,0.624 5.086,1.871l4.191,-8.382c-2.631,-1.573 -5.154,-2.36 -7.568,-2.36c-1.818,0 -3.391,0.339 -4.72,1.018c-1.302,0.651 -2.794,1.858 -4.476,3.621l-0,-3.54l-9.155,-0Zm60.384,-0l-0,4.598c-3.662,-3.798 -7.799,-5.697 -12.411,-5.697c-5.344,0 -9.793,1.981 -13.346,5.941c-3.554,3.961 -5.331,8.911 -5.331,14.852c0,6.049 1.777,11.095 5.331,15.137c3.581,3.96 8.111,5.94 13.59,5.94c4.341,0 8.396,-1.763 12.167,-5.289l-0,4.15l9.196,0l-0,-39.632l-9.196,-0Zm-21.729,19.694c0,-3.554 1.045,-6.538 3.133,-8.952c2.116,-2.387 4.747,-3.581 7.894,-3.581c3.337,0 6.049,1.18 8.138,3.54c2.089,2.415 3.133,5.48 3.133,9.196c0,3.717 -1.044,6.782 -3.133,9.196c-2.089,2.333 -4.828,3.5 -8.219,3.5c-3.174,-0 -5.805,-1.207 -7.894,-3.622c-2.035,-2.387 -3.052,-5.479 -3.052,-9.277Zm51.636,-19.694l-9.155,-0l-0,39.632l9.155,0l-0,-39.632Zm-10.539,-16.48c0,1.682 0.583,3.106 1.75,4.273c1.166,1.166 2.577,1.75 4.232,1.75c1.654,-0 3.051,-0.584 4.191,-1.75c1.166,-1.167 1.749,-2.577 1.749,-4.232c0,-1.655 -0.583,-3.052 -1.749,-4.191c-1.167,-1.166 -2.577,-1.75 -4.232,-1.75c-1.628,0 -3.025,0.584 -4.191,1.75c-1.167,1.166 -1.75,2.55 -1.75,4.15Zm22.136,16.48l-0,39.632l9.196,0l-0,-19.124c-0,-4.937 0.623,-8.396 1.871,-10.376c1.275,-2.008 3.432,-3.011 6.47,-3.011c2.794,-0 4.72,0.759 5.778,2.278c1.085,1.492 1.628,4.191 1.628,8.098l-0,22.135l9.196,0l-0,-24.292c-0,-5.588 -1.113,-9.616 -3.337,-12.085c-2.577,-2.902 -6.171,-4.354 -10.783,-4.354c-4.015,0 -7.623,1.587 -10.823,4.761l-0,-3.662l-9.196,-0Zm54.85,-0l-9.155,-0l-0,39.632l9.155,0l-0,-39.632Zm-10.539,-16.48c0,1.682 0.583,3.106 1.75,4.273c1.166,1.166 2.577,1.75 4.232,1.75c1.654,-0 3.051,-0.584 4.191,-1.75c1.166,-1.167 1.749,-2.577 1.749,-4.232c0,-1.655 -0.583,-3.052 -1.749,-4.191c-1.167,-1.166 -2.577,-1.75 -4.232,-1.75c-1.628,0 -3.025,0.584 -4.191,1.75c-1.167,1.166 -1.75,2.55 -1.75,4.15Zm22.136,16.48l-0,39.632l9.195,0l0,-19.124c0,-4.937 0.624,-8.396 1.872,-10.376c1.275,-2.008 3.432,-3.011 6.47,-3.011c2.794,-0 4.72,0.759 5.778,2.278c1.085,1.492 1.628,4.191 1.628,8.098l-0,22.135l9.196,0l-0,-24.292c-0,-5.588 -1.113,-9.616 -3.337,-12.085c-2.577,-2.902 -6.171,-4.354 -10.783,-4.354c-4.015,0 -7.623,1.587 -10.824,4.761l0,-3.662l-9.195,-0Zm84.025,38.696l-0,-38.696l-9.156,-0l0,4.476c-3.309,-3.717 -7.46,-5.575 -12.451,-5.575c-5.696,0 -10.281,2.143 -13.753,6.429c-3.228,4.042 -4.842,8.952 -4.842,14.73c-0,5.941 1.736,10.892 5.208,14.852c3.445,3.906 7.867,5.859 13.265,5.859c4.747,0 8.938,-1.858 12.573,-5.574l0,5.534c0,8.219 -3.35,12.329 -10.05,12.329c-3.635,-0 -6.402,-1.234 -8.301,-3.703c-0.814,-1.058 -1.397,-2.563 -1.75,-4.517l-9.196,0c0.543,5.182 2.577,9.237 6.104,12.167c3.418,2.848 7.772,4.272 13.061,4.272c6.267,0 11.19,-2.061 14.771,-6.185c1.899,-2.143 3.174,-4.706 3.825,-7.69c0.217,-1.085 0.386,-2.34 0.508,-3.764c0.123,-1.424 0.184,-3.072 0.184,-4.944Zm-8.789,-18.799c-0,3.608 -0.936,6.565 -2.808,8.871c-2.035,2.55 -4.802,3.825 -8.301,3.825c-3.499,-0 -6.239,-1.262 -8.219,-3.784c-1.818,-2.306 -2.727,-5.263 -2.727,-8.871c0,-3.662 0.909,-6.646 2.727,-8.952c2.007,-2.577 4.747,-3.865 8.219,-3.865c3.255,-0 5.927,1.18 8.016,3.54c2.062,2.306 3.093,5.384 3.093,9.236Zm550.792,-48.009l-20.833,-0l-0,20.833l20.833,0l0,-20.833Zm-187.5,20.833l-20.833,0l-0,20.834l20.833,-0l0,-20.834Zm62.562,-41.666l0,-20.834l-20.833,0l0,20.834l20.833,-0Zm0,-0l0,20.833l-41.729,-0l0,20.833l62.5,0l0,-20.833l0.063,-0l-0,-20.833l-20.834,-0Zm20.771,-83.334l-20.833,0l0,20.834l20.833,-0l0,-20.834Zm-912.45,102.539l-35.888,83.212l7.486,3.377l35.971,-83.252l-7.569,-3.337Zm974.95,105.795l0,-41.667l-20.833,-0l0,41.667l20.833,-0Zm-41.666,-62.5l-20.834,-0l0,20.833l20.834,-0l-0,-20.833Zm-125,83.333l-20.834,-0l0,20.833l20.834,0l-0,-20.833Zm-0,-41.667l-20.834,0l0,20.834l20.834,-0l-0,-20.834Zm166.666,-62.5l-20.833,0l0,20.834l20.833,-0l0,-20.834Zm687.5,-20.833l0,20.833l-20.833,0l0,-20.833l20.833,-0Zm0,-0l0,-20.833l20.834,-0l-0,20.833l-20.834,-0Zm41.667,62.5l0,-20.833l20.833,-0l0,20.833l-20.833,-0Zm0,20.833l20.833,0l0,20.834l-20.833,-0l0,-20.834Zm-20.833,0l-0,-20.833l20.833,-0l0,20.833l-20.833,0Zm20.833,-62.5l0,-20.833l20.833,-0l0,20.833l-20.833,0Zm0,20.834l-20.833,-0l-0,-20.834l20.833,0l0,20.834Zm-20.833,41.666l-0,20.834l-20.834,-0l0,-20.834l20.834,0Zm-270.834,-41.666l0,20.833l-20.833,-0l0,-20.833l20.833,-0Zm83.334,20.833l-0,20.833l-20.834,0l0,-20.833l20.834,-0Zm-83.334,-20.833l0,-20.834l83.334,0l-0,20.834l-83.334,-0Zm83.334,-20.834l-0,-20.833l20.833,-0l0,20.833l-20.833,0Zm20.833,-20.833l0,-20.833l20.833,-0l0,20.833l-20.833,-0Zm20.833,-0l41.667,-0l0,20.833l-41.667,0l0,-20.833Zm0,20.833l0,20.834l41.667,-0l0,20.833l62.5,-0l0,20.833l-83.333,0l-0,-20.833l-62.5,-0l-0,-20.833l20.833,-0l0,-20.834l20.833,0Zm20.834,125l-20.834,0l0,-20.833l20.834,-0l-0,20.833Zm-0,-20.833l-0,-20.833l20.833,-0l0,20.833l-20.833,-0Zm20.833,-0l20.833,-0l0,20.833l-20.833,0l0,-20.833Zm0,20.833l0,20.834l-20.833,-0l-0,-20.834l20.833,0Zm166.667,-187.5l-0,20.834l-41.667,-0l0,-20.834l41.667,0Zm-0,0l-0,-20.833l20.833,-0l0,20.833l-20.833,0Zm-395.834,-83.333l41.667,-0l0,20.833l-41.667,0l0,-20.833Zm395.834,-0l20.833,-0l0,20.833l-20.833,0l-0,-20.833Zm-125,333.333l-41.667,0l0,-20.833l41.667,-0l-0,20.833Zm-395.834,0l-20.833,0l0,-20.833l20.833,-0l0,20.833Zm562.5,-166.666l-20.833,-0l0,-20.834l20.833,0l0,20.834Zm-541.666,166.666l-0,-20.833l20.833,-0l0,20.833l-20.833,0Zm291.666,-104.166l-20.833,-0l0,-20.834l20.833,0l0,20.834Zm104.167,62.5l-20.833,-0l-0,-20.834l20.833,0l0,20.834Zm-41.667,-208.334l41.667,0l0,20.834l-20.833,-0l-0,20.833l-20.834,-0l0,-41.667Zm145.834,166.667l-0,20.833l-20.834,0l0,-20.833l20.834,-0Zm-312.5,-20.833l-0,-20.834l20.833,0l0,20.834l-20.833,-0Zm166.666,-83.334l20.834,0l-0,20.834l-20.834,-0l0,-20.834Zm104.167,125l-41.667,0l0,-20.833l41.667,-0l0,20.833Z" />
</svg>
